<svg xmlns="http://www.w3.org/2000/svg" xmlns:xlink="http://www.w3.org/1999/xlink" width="500" zoomAndPan="magnify" viewBox="0 0 375 374.999991" height="500" preserveAspectRatio="xMidYMid meet" version="1.0"><defs><g/><clipPath id="6d0229d279"><path d="M 95 62.539062 L 285 62.539062 L 285 252 L 95 252 Z M 95 62.539062 " clip-rule="nonzero"/></clipPath><clipPath id="8b8bea5610"><path d="M 67.304688 190 L 308.054688 190 L 308.054688 256 L 67.304688 256 Z M 67.304688 190 " clip-rule="nonzero"/></clipPath><clipPath id="ad387cd7c6"><path d="M 124 278 L 242 278 L 242 311 L 124 311 Z M 124 278 " clip-rule="nonzero"/></clipPath><clipPath id="9f3aa39cc9"><path d="M 121.414062 293.117188 L 245.671875 277.386719 L 247.933594 295.246094 L 123.671875 310.976562 Z M 121.414062 293.117188 " clip-rule="nonzero"/></clipPath><clipPath id="07a668cb91"><path d="M 121.414062 293.117188 L 245.671875 277.386719 L 247.933594 295.246094 L 123.671875 310.976562 Z M 121.414062 293.117188 " clip-rule="nonzero"/></clipPath><clipPath id="0a9aa71a4a"><path d="M 127 297 L 151 297 L 151 305 L 127 305 Z M 127 297 " clip-rule="nonzero"/></clipPath><clipPath id="3e4952d7f9"><path d="M 121.414062 293.117188 L 245.671875 277.386719 L 247.933594 295.246094 L 123.671875 310.976562 Z M 121.414062 293.117188 " clip-rule="nonzero"/></clipPath><clipPath id="e1c33f325d"><path d="M 121.414062 293.117188 L 245.671875 277.386719 L 247.933594 295.246094 L 123.671875 310.976562 Z M 121.414062 293.117188 " clip-rule="nonzero"/></clipPath><clipPath id="f9ff5f7b29"><path d="M 235 282 L 246 282 L 246 296 L 235 296 Z M 235 282 " clip-rule="nonzero"/></clipPath><clipPath id="9f884f63fd"><path d="M 121.414062 293.117188 L 245.671875 277.386719 L 247.933594 295.246094 L 123.671875 310.976562 Z M 121.414062 293.117188 " clip-rule="nonzero"/></clipPath><clipPath id="7ecb50b47b"><path d="M 121.414062 293.117188 L 245.671875 277.386719 L 247.933594 295.246094 L 123.671875 310.976562 Z M 121.414062 293.117188 " clip-rule="nonzero"/></clipPath></defs><g clip-path="url(#6d0229d279)"><path fill="#331f17" d="M 284.277344 156.960938 C 284.277344 209.0625 241.972656 251.296875 189.789062 251.296875 C 137.605469 251.296875 95.300781 209.0625 95.300781 156.960938 C 95.300781 104.859375 137.605469 62.621094 189.789062 62.621094 C 241.972656 62.621094 284.277344 104.859375 284.277344 156.960938 " fill-opacity="1" fill-rule="nonzero"/></g><path fill="#fbe7d6" d="M 278.503906 156.960938 C 278.503906 205.878906 238.78125 245.535156 189.789062 245.535156 C 140.792969 245.535156 101.070312 205.878906 101.070312 156.960938 C 101.070312 108.042969 140.792969 68.382812 189.789062 68.382812 C 238.78125 68.382812 278.503906 108.042969 278.503906 156.960938 " fill-opacity="1" fill-rule="nonzero"/><path fill="#341f17" d="M 194.769531 158.246094 C 194.769531 161.699219 191.960938 164.503906 188.5 164.503906 C 185.039062 164.503906 182.230469 161.699219 182.230469 158.246094 C 182.230469 154.789062 185.039062 151.988281 188.5 151.988281 C 191.960938 151.988281 194.769531 154.789062 194.769531 158.246094 " fill-opacity="1" fill-rule="nonzero"/><path fill="#5e9f31" d="M 190.511719 88.121094 C 225.800781 88.121094 254.652344 115.554688 256.890625 150.222656 L 268.847656 150.222656 C 265.765625 109.300781 231.558594 77.050781 189.789062 77.050781 C 148.011719 77.050781 113.808594 109.300781 110.722656 150.222656 L 124.132812 150.222656 C 126.367188 115.554688 155.222656 88.121094 190.511719 88.121094 " fill-opacity="1" fill-rule="nonzero"/><path fill="#d01f29" d="M 189.066406 224.355469 C 153.777344 224.355469 124.921875 196.921875 122.683594 162.253906 L 110.722656 162.253906 C 113.804688 203.175781 148.011719 235.425781 189.785156 235.425781 C 231.558594 235.425781 265.765625 203.175781 268.847656 162.253906 L 255.445312 162.253906 C 253.207031 196.921875 224.351562 224.355469 189.066406 224.355469 " fill-opacity="1" fill-rule="nonzero"/><path fill="#d01f29" d="M 250.457031 160.171875 L 198.867188 160.171875 L 198.867188 155.597656 L 250.457031 155.597656 L 250.457031 160.171875 " fill-opacity="1" fill-rule="nonzero"/><path fill="#5e9f31" d="M 178.132812 160.171875 L 126.546875 160.171875 L 126.546875 155.597656 L 178.132812 155.597656 L 178.132812 160.171875 " fill-opacity="1" fill-rule="nonzero"/><path fill="#f9a72b" d="M 142.203125 137.394531 C 142.203125 137.394531 138.898438 132.222656 142.074219 129.304688 C 145.246094 126.386719 194.613281 85.203125 204.640625 88.859375 C 214.671875 92.515625 233.898438 104.472656 237.796875 126.816406 C 241.695312 149.164062 142.203125 137.394531 142.203125 137.394531 " fill-opacity="1" fill-rule="nonzero"/><path fill="#341f17" d="M 237.769531 126.816406 C 233.871094 104.46875 214.640625 92.511719 204.613281 88.855469 C 202.136719 87.949219 197.25 89.789062 191.253906 93.109375 C 191.285156 93.121094 219.230469 103.378906 224.472656 137.894531 C 233.253906 135.855469 238.742188 132.402344 237.769531 126.816406 " fill-opacity="1" fill-rule="nonzero"/><path fill="#341f17" d="M 141.925781 136.886719 C 141.925781 136.886719 199.699219 144.507812 237.90625 128.496094 L 236.5 139.476562 C 236.5 139.476562 197.457031 150.871094 140.96875 144.363281 L 141.925781 136.886719 " fill-opacity="1" fill-rule="nonzero"/><path fill="#f9a72b" d="M 141.628906 139.222656 L 144.207031 138.601562 L 146.542969 139.851562 L 151.652344 138.960938 L 158.925781 140.660156 L 162.765625 140.382812 L 166.042969 140.800781 L 170.683594 139.851562 C 170.683594 139.851562 174.445312 140.210938 174.78125 140.371094 C 175.117188 140.535156 178.910156 139.710938 178.910156 139.710938 L 180.429688 139.90625 L 184.523438 141.382812 C 184.523438 141.382812 189.878906 140.402344 190.230469 140.449219 C 190.582031 140.492188 193.039062 140.808594 193.039062 140.808594 L 196.585938 139.125 L 198.105469 139.316406 L 200.929688 138.609375 C 200.929688 138.609375 202.527344 138.21875 202.921875 138.863281 C 203.3125 139.507812 207.0625 138.089844 207.0625 138.089844 L 209.523438 138.402344 L 211.25 136.960938 L 214.644531 137.394531 L 219.804688 135.203125 C 219.804688 135.203125 220.882812 136.054688 221.234375 136.101562 C 221.585938 136.144531 223.898438 135.726562 223.898438 135.726562 L 225.15625 135.175781 L 228.484375 133.347656 L 229.886719 133.523438 L 231.601562 133.152344 L 234.808594 132.253906 C 235.351562 131.730469 236.273438 131.019531 236.273438 131.019531 L 237.679688 130.246094 L 236.738281 137.605469 L 234.265625 138.359375 C 234.265625 138.359375 233.925781 138.199219 233.460938 138.136719 C 232.992188 138.078125 230.035156 138.886719 230.035156 138.886719 L 228.382812 139.6875 L 224.757812 139.222656 C 224.757812 139.222656 222.949219 139.40625 222.554688 139.710938 C 222.15625 140.015625 221.574219 139.941406 220.914062 140.453125 C 220.253906 140.960938 214.5625 140.828125 214.5625 140.828125 C 214.5625 140.828125 212.773438 140.957031 212.796875 141.195312 C 212.816406 141.433594 211.003906 141.679688 211.003906 141.679688 L 205.777344 143.503906 L 203.054688 143.394531 C 203.054688 143.394531 200.289062 142.683594 199.675781 142.84375 C 199.0625 143 196.773438 144.136719 196.773438 144.136719 C 196.773438 144.136719 195.777344 144.480469 193.761719 144.460938 C 191.742188 144.441406 187.894531 143.832031 187.894531 143.832031 C 187.894531 143.832031 185.523438 143.765625 184.308594 143.964844 C 183.09375 144.167969 180.738281 143.984375 180.359375 144.171875 C 179.976562 144.363281 175.558594 143.5625 175.558594 143.5625 C 175.558594 143.5625 174.1875 143.144531 172.910156 143.816406 C 171.636719 144.480469 171.242188 144.789062 170.304688 144.667969 C 169.367188 144.550781 168.769531 144.59375 166.441406 144.175781 C 164.117188 143.757812 163.304688 142.703125 162.203125 142.921875 C 161.105469 143.136719 159.933594 143.9375 158.71875 144.136719 C 157.503906 144.339844 157.945312 143.683594 155.792969 143.761719 C 153.640625 143.84375 151.804688 143.339844 151.214844 143.28125 C 150.628906 143.222656 149.195312 143.292969 146.410156 142.75 L 141.136719 143.078125 L 141.628906 139.222656 " fill-opacity="1" fill-rule="nonzero"/><path fill="#fab69d" d="M 162.105469 141.386719 C 162.082031 141.585938 162.429688 141.792969 162.878906 141.847656 C 163.332031 141.90625 163.71875 141.792969 163.746094 141.597656 C 163.769531 141.398438 163.421875 141.191406 162.972656 141.132812 C 162.519531 141.078125 162.132812 141.191406 162.105469 141.386719 " fill-opacity="1" fill-rule="nonzero"/><path fill="#fab69d" d="M 233.9375 135.347656 C 233.910156 135.542969 234.257812 135.746094 234.710938 135.804688 C 235.160156 135.863281 235.546875 135.753906 235.574219 135.558594 C 235.597656 135.363281 235.253906 135.160156 234.800781 135.101562 C 234.347656 135.042969 233.960938 135.152344 233.9375 135.347656 " fill-opacity="1" fill-rule="nonzero"/><path fill="#fab69d" d="M 227.144531 136.378906 C 227.117188 136.574219 227.464844 136.777344 227.917969 136.835938 C 228.371094 136.894531 228.757812 136.785156 228.78125 136.589844 C 228.808594 136.394531 228.460938 136.191406 228.007812 136.136719 C 227.554688 136.074219 227.167969 136.1875 227.144531 136.378906 " fill-opacity="1" fill-rule="nonzero"/><path fill="#fab69d" d="M 217.601562 138.128906 C 217.578125 138.324219 217.925781 138.527344 218.378906 138.585938 C 218.828125 138.640625 219.214844 138.53125 219.242188 138.339844 C 219.265625 138.144531 218.917969 137.941406 218.464844 137.882812 C 218.015625 137.828125 217.628906 137.9375 217.601562 138.128906 " fill-opacity="1" fill-rule="nonzero"/><path fill="#fab69d" d="M 210.296875 140.398438 C 210.269531 140.59375 210.617188 140.796875 211.070312 140.855469 C 211.519531 140.914062 211.90625 140.804688 211.933594 140.609375 C 211.957031 140.417969 211.613281 140.210938 211.160156 140.15625 C 210.707031 140.097656 210.320312 140.207031 210.296875 140.398438 " fill-opacity="1" fill-rule="nonzero"/><path fill="#fab69d" d="M 203.679688 140.980469 C 203.65625 141.171875 204.003906 141.378906 204.453125 141.433594 C 204.90625 141.492188 205.292969 141.382812 205.316406 141.191406 C 205.34375 140.996094 204.996094 140.792969 204.542969 140.734375 C 204.089844 140.675781 203.707031 140.785156 203.679688 140.980469 " fill-opacity="1" fill-rule="nonzero"/><path fill="#fab69d" d="M 195.59375 141.605469 C 195.566406 141.796875 195.914062 142 196.367188 142.058594 C 196.820312 142.117188 197.207031 142.007812 197.230469 141.8125 C 197.253906 141.621094 196.910156 141.417969 196.457031 141.359375 C 196.003906 141.300781 195.617188 141.410156 195.59375 141.605469 " fill-opacity="1" fill-rule="nonzero"/><path fill="#fab69d" d="M 187.882812 142.042969 C 187.859375 142.238281 188.207031 142.441406 188.660156 142.5 C 189.109375 142.558594 189.5 142.449219 189.523438 142.253906 C 189.546875 142.058594 189.203125 141.855469 188.75 141.800781 C 188.296875 141.738281 187.910156 141.847656 187.882812 142.042969 " fill-opacity="1" fill-rule="nonzero"/><path fill="#fab69d" d="M 179.054688 141.984375 C 179.027344 142.175781 179.375 142.378906 179.828125 142.4375 C 180.28125 142.496094 180.667969 142.386719 180.691406 142.191406 C 180.714844 142 180.371094 141.796875 179.917969 141.738281 C 179.464844 141.679688 179.078125 141.789062 179.054688 141.984375 " fill-opacity="1" fill-rule="nonzero"/><path fill="#fab69d" d="M 169.925781 142.0625 C 169.90625 142.214844 170.257812 142.382812 170.710938 142.441406 C 171.164062 142.496094 171.542969 142.421875 171.5625 142.269531 C 171.582031 142.117188 171.230469 141.949219 170.777344 141.890625 C 170.328125 141.835938 169.945312 141.910156 169.925781 142.0625 " fill-opacity="1" fill-rule="nonzero"/><path fill="#fab69d" d="M 154.464844 142.046875 C 154.441406 142.238281 154.789062 142.445312 155.242188 142.5 C 155.691406 142.558594 156.078125 142.449219 156.105469 142.257812 C 156.128906 142.0625 155.785156 141.859375 155.332031 141.800781 C 154.878906 141.742188 154.492188 141.851562 154.464844 142.046875 " fill-opacity="1" fill-rule="nonzero"/><path fill="#fab69d" d="M 148.070312 141.230469 C 148.046875 141.421875 148.390625 141.625 148.84375 141.683594 C 149.296875 141.742188 149.683594 141.632812 149.710938 141.4375 C 149.734375 141.246094 149.386719 141.039062 148.933594 140.984375 C 148.484375 140.925781 148.09375 141.035156 148.070312 141.230469 " fill-opacity="1" fill-rule="nonzero"/><path fill="#fab69d" d="M 142.757812 140.90625 C 142.734375 141.097656 143.082031 141.304688 143.535156 141.359375 C 143.984375 141.421875 144.375 141.308594 144.398438 141.117188 C 144.421875 140.921875 144.078125 140.71875 143.625 140.660156 C 143.171875 140.601562 142.785156 140.710938 142.757812 140.90625 " fill-opacity="1" fill-rule="nonzero"/><path fill="#341f17" d="M 223.710938 133.433594 C 223.710938 133.433594 223.8125 124.507812 229.425781 124.105469 C 235.039062 123.703125 237.832031 128.867188 237.832031 128.867188 L 223.710938 133.433594 " fill-opacity="1" fill-rule="nonzero"/><path fill="#341f17" d="M 220.558594 128.058594 C 217.714844 123.65625 217.179688 112.203125 191.191406 93.617188 C 191.191406 93.617188 187.800781 92.925781 186.636719 95.839844 C 185.46875 98.753906 183.558594 97.753906 181.695312 99 C 179.832031 100.246094 176.589844 102.132812 176.621094 102.847656 C 176.621094 102.847656 176.027344 104.773438 172.890625 105.09375 C 169.75 105.414062 168.71875 107.210938 168.636719 108.195312 C 168.554688 109.179688 166.03125 110.128906 164.632812 111.191406 C 163.234375 112.253906 160.695312 113.054688 160.921875 114.027344 C 161.144531 115 161.125 117.015625 158.507812 117.039062 C 155.886719 117.058594 153.695312 118.804688 153.570312 119.355469 C 153.445312 119.898438 154.355469 122.207031 152.210938 121.933594 C 152.210938 121.933594 149.019531 122.210938 148.585938 123.832031 C 148.152344 125.449219 145.316406 125.921875 144.648438 126.191406 C 143.980469 126.460938 143.085938 127.296875 142.898438 128.578125 C 142.710938 129.859375 143.296875 129.9375 141.785156 130.574219 C 140.277344 131.214844 139.824219 131.035156 140.023438 133.199219 C 140.023438 133.199219 138.054688 138.589844 139.839844 138.902344 C 141.628906 139.222656 144.210938 136.105469 144.210938 136.105469 C 144.210938 136.105469 145.015625 135.65625 150.292969 136.882812 C 155.570312 138.105469 168.917969 138.792969 171.335938 137.558594 C 173.753906 136.324219 179.691406 141.949219 181.59375 141.957031 C 183.496094 141.960938 185.410156 137.21875 187.328125 137.109375 C 187.328125 137.109375 188.359375 139.257812 191.476562 139.0625 C 192.789062 138.980469 193.667969 139.136719 194.460938 139.292969 C 195.546875 139.511719 196.46875 139.726562 198.105469 139.316406 C 200.929688 138.609375 203.210938 135.695312 206.367188 137.050781 C 207.671875 137.609375 209.070312 137.285156 210.359375 136.960938 C 212.179688 136.503906 213.773438 136.046875 214.554688 138.097656 C 215.890625 141.589844 220.523438 134.421875 221.136719 134.070312 C 221.136719 134.070312 223.402344 132.457031 220.558594 128.058594 " fill-opacity="1" fill-rule="nonzero"/><path fill="#f9a72b" d="M 215.675781 126.675781 C 215.097656 131.183594 210.152344 134.269531 204.632812 133.5625 C 199.109375 132.859375 195.101562 128.628906 195.679688 124.121094 C 196.257812 119.613281 201.203125 116.53125 206.726562 117.234375 C 212.246094 117.941406 216.253906 122.167969 215.675781 126.675781 " fill-opacity="1" fill-rule="nonzero"/><path fill="#f9a72b" d="M 215.804688 125.667969 C 215.226562 130.175781 210.285156 133.261719 204.761719 132.554688 C 199.238281 131.847656 195.230469 127.621094 195.808594 123.113281 C 196.386719 118.601562 201.332031 115.519531 206.855469 116.226562 C 212.378906 116.933594 216.382812 121.160156 215.804688 125.667969 " fill-opacity="1" fill-rule="nonzero"/><path fill="#f6c766" d="M 206.890625 118.914062 C 206.769531 118.914062 206.644531 118.90625 206.511719 118.890625 C 205.679688 118.785156 205.046875 118.359375 205.101562 117.941406 C 205.148438 117.589844 205.667969 117.351562 206.332031 117.351562 C 206.453125 117.351562 206.578125 117.363281 206.707031 117.378906 C 207.539062 117.484375 208.171875 117.90625 208.117188 118.328125 C 208.074219 118.679688 207.554688 118.914062 206.890625 118.914062 " fill-opacity="1" fill-rule="nonzero"/><path fill="#f6c766" d="M 201.191406 120.480469 C 201.082031 120.480469 200.972656 120.472656 200.859375 120.460938 C 200.023438 120.367188 199.386719 119.953125 199.433594 119.535156 C 199.472656 119.171875 200.011719 118.929688 200.699219 118.929688 C 200.804688 118.929688 200.917969 118.933594 201.027344 118.945312 C 201.863281 119.039062 202.5 119.453125 202.457031 119.871094 C 202.417969 120.234375 201.875 120.480469 201.191406 120.480469 " fill-opacity="1" fill-rule="nonzero"/><path fill="#f6c766" d="M 199.269531 124.089844 C 199.148438 124.089844 199.023438 124.082031 198.890625 124.0625 C 198.058594 123.957031 197.425781 123.53125 197.480469 123.113281 C 197.523438 122.761719 198.046875 122.527344 198.707031 122.527344 C 198.828125 122.527344 198.957031 122.535156 199.085938 122.550781 C 199.917969 122.660156 200.550781 123.082031 200.496094 123.5 C 200.453125 123.855469 199.933594 124.089844 199.269531 124.089844 " fill-opacity="1" fill-rule="nonzero"/><path fill="#f6c766" d="M 211.949219 121.855469 C 211.828125 121.855469 211.699219 121.847656 211.570312 121.832031 C 210.738281 121.726562 210.105469 121.300781 210.160156 120.882812 C 210.207031 120.527344 210.722656 120.292969 211.390625 120.292969 C 211.511719 120.292969 211.636719 120.300781 211.765625 120.316406 C 212.597656 120.425781 213.230469 120.851562 213.175781 121.269531 C 213.132812 121.621094 212.613281 121.855469 211.949219 121.855469 " fill-opacity="1" fill-rule="nonzero"/><path fill="#f6c766" d="M 213.378906 126.664062 C 213.257812 126.664062 213.132812 126.65625 213.003906 126.636719 C 212.171875 126.53125 211.539062 126.105469 211.589844 125.6875 C 211.636719 125.335938 212.15625 125.097656 212.820312 125.097656 C 212.941406 125.097656 213.066406 125.109375 213.199219 125.125 C 214.03125 125.230469 214.664062 125.65625 214.609375 126.074219 C 214.5625 126.425781 214.042969 126.664062 213.378906 126.664062 " fill-opacity="1" fill-rule="nonzero"/><path fill="#f6c766" d="M 209.855469 130.566406 C 209.734375 130.566406 209.609375 130.558594 209.480469 130.542969 C 208.648438 130.4375 208.015625 130.011719 208.070312 129.59375 C 208.113281 129.238281 208.632812 129.003906 209.296875 129.003906 C 209.417969 129.003906 209.546875 129.011719 209.675781 129.03125 C 210.507812 129.136719 211.140625 129.5625 211.085938 129.980469 C 211.039062 130.332031 210.523438 130.566406 209.855469 130.566406 " fill-opacity="1" fill-rule="nonzero"/><path fill="#f6c766" d="M 201.601562 129.511719 C 201.476562 129.511719 201.351562 129.503906 201.222656 129.488281 C 200.390625 129.378906 199.757812 128.957031 199.8125 128.535156 C 199.855469 128.183594 200.375 127.949219 201.039062 127.949219 C 201.160156 127.949219 201.289062 127.957031 201.417969 127.972656 C 202.25 128.082031 202.882812 128.503906 202.828125 128.921875 C 202.78125 129.277344 202.265625 129.511719 201.601562 129.511719 " fill-opacity="1" fill-rule="nonzero"/><path fill="#f6c766" d="M 206.210938 124.207031 C 206.089844 124.207031 205.964844 124.199219 205.832031 124.183594 C 205 124.078125 204.367188 123.652344 204.421875 123.234375 C 204.46875 122.878906 204.988281 122.648438 205.652344 122.648438 C 205.773438 122.648438 205.898438 122.652344 206.027344 122.671875 C 206.859375 122.777344 207.492188 123.203125 207.441406 123.621094 C 207.394531 123.972656 206.875 124.207031 206.210938 124.207031 " fill-opacity="1" fill-rule="nonzero"/><path fill="#f9a72b" d="M 165.226562 129.507812 C 164.800781 132.828125 161.15625 135.101562 157.089844 134.582031 C 153.023438 134.0625 150.070312 130.945312 150.496094 127.625 C 150.921875 124.304688 154.566406 122.035156 158.632812 122.554688 C 162.699219 123.074219 165.652344 126.1875 165.226562 129.507812 " fill-opacity="1" fill-rule="nonzero"/><path fill="#f9a72b" d="M 165.320312 128.765625 C 164.894531 132.089844 161.25 134.359375 157.183594 133.839844 C 153.117188 133.316406 150.164062 130.207031 150.589844 126.882812 C 151.015625 123.5625 154.660156 121.292969 158.726562 121.8125 C 162.792969 122.332031 165.746094 125.445312 165.320312 128.765625 " fill-opacity="1" fill-rule="nonzero"/><path fill="#f6c766" d="M 158.753906 123.792969 C 158.664062 123.792969 158.570312 123.785156 158.476562 123.773438 C 157.859375 123.695312 157.394531 123.382812 157.433594 123.074219 C 157.46875 122.816406 157.851562 122.640625 158.339844 122.640625 C 158.429688 122.640625 158.523438 122.648438 158.617188 122.660156 C 159.234375 122.738281 159.699219 123.050781 159.660156 123.359375 C 159.625 123.617188 159.242188 123.792969 158.753906 123.792969 " fill-opacity="1" fill-rule="nonzero"/><path fill="#f6c766" d="M 154.554688 124.945312 C 154.476562 124.945312 154.394531 124.941406 154.3125 124.933594 C 153.699219 124.863281 153.226562 124.558594 153.261719 124.25 C 153.289062 123.984375 153.6875 123.800781 154.191406 123.800781 C 154.269531 123.800781 154.351562 123.804688 154.4375 123.816406 C 155.050781 123.882812 155.519531 124.1875 155.488281 124.496094 C 155.457031 124.761719 155.058594 124.945312 154.554688 124.945312 " fill-opacity="1" fill-rule="nonzero"/><path fill="#f6c766" d="M 153.140625 127.601562 C 153.050781 127.601562 152.957031 127.597656 152.863281 127.585938 C 152.246094 127.507812 151.78125 127.195312 151.820312 126.886719 C 151.855469 126.625 152.238281 126.453125 152.726562 126.453125 C 152.816406 126.453125 152.910156 126.460938 153.003906 126.472656 C 153.621094 126.546875 154.085938 126.863281 154.042969 127.171875 C 154.011719 127.429688 153.625 127.601562 153.140625 127.601562 " fill-opacity="1" fill-rule="nonzero"/><path fill="#f6c766" d="M 162.476562 125.957031 C 162.390625 125.957031 162.296875 125.953125 162.199219 125.9375 C 161.585938 125.859375 161.121094 125.550781 161.160156 125.242188 C 161.195312 124.980469 161.578125 124.808594 162.066406 124.808594 C 162.15625 124.808594 162.25 124.8125 162.34375 124.828125 C 162.957031 124.902344 163.421875 125.214844 163.382812 125.523438 C 163.351562 125.785156 162.96875 125.957031 162.476562 125.957031 " fill-opacity="1" fill-rule="nonzero"/><path fill="#f6c766" d="M 163.535156 129.496094 C 163.445312 129.496094 163.351562 129.492188 163.257812 129.480469 C 162.640625 129.402344 162.175781 129.089844 162.214844 128.78125 C 162.25 128.523438 162.632812 128.347656 163.121094 128.347656 C 163.210938 128.347656 163.304688 128.351562 163.398438 128.367188 C 164.011719 128.445312 164.480469 128.757812 164.4375 129.066406 C 164.40625 129.324219 164.019531 129.496094 163.535156 129.496094 " fill-opacity="1" fill-rule="nonzero"/><path fill="#f6c766" d="M 160.9375 132.375 C 160.851562 132.375 160.757812 132.367188 160.660156 132.355469 C 160.046875 132.277344 159.582031 131.964844 159.621094 131.65625 C 159.65625 131.398438 160.039062 131.222656 160.527344 131.222656 C 160.617188 131.222656 160.707031 131.230469 160.804688 131.242188 C 161.417969 131.320312 161.882812 131.632812 161.84375 131.941406 C 161.808594 132.203125 161.425781 132.375 160.9375 132.375 " fill-opacity="1" fill-rule="nonzero"/><path fill="#f6c766" d="M 154.855469 131.597656 C 154.769531 131.597656 154.675781 131.59375 154.578125 131.578125 C 153.964844 131.5 153.5 131.1875 153.539062 130.878906 C 153.574219 130.621094 153.957031 130.449219 154.445312 130.449219 C 154.53125 130.449219 154.625 130.453125 154.722656 130.464844 C 155.335938 130.542969 155.800781 130.855469 155.761719 131.164062 C 155.726562 131.425781 155.34375 131.597656 154.855469 131.597656 " fill-opacity="1" fill-rule="nonzero"/><path fill="#f6c766" d="M 158.253906 127.691406 C 158.164062 127.691406 158.070312 127.6875 157.972656 127.671875 C 157.363281 127.59375 156.898438 127.28125 156.9375 126.972656 C 156.96875 126.714844 157.351562 126.542969 157.839844 126.542969 C 157.929688 126.542969 158.023438 126.546875 158.117188 126.558594 C 158.730469 126.636719 159.195312 126.949219 159.15625 127.257812 C 159.125 127.519531 158.742188 127.691406 158.253906 127.691406 " fill-opacity="1" fill-rule="nonzero"/><path fill="#f9a72b" d="M 177.390625 122.078125 C 177.054688 124.699219 174.183594 126.488281 170.976562 126.082031 C 167.769531 125.667969 165.441406 123.214844 165.777344 120.59375 C 166.113281 117.976562 168.984375 116.1875 172.191406 116.59375 C 175.398438 117.003906 177.726562 119.460938 177.390625 122.078125 " fill-opacity="1" fill-rule="nonzero"/><path fill="#f9a72b" d="M 177.46875 121.496094 C 177.132812 124.113281 174.257812 125.902344 171.050781 125.492188 C 167.84375 125.085938 165.515625 122.628906 165.851562 120.007812 C 166.1875 117.390625 169.058594 115.601562 172.269531 116.007812 C 175.472656 116.417969 177.804688 118.875 177.46875 121.496094 " fill-opacity="1" fill-rule="nonzero"/><path fill="#f6c766" d="M 172.289062 117.570312 C 172.21875 117.570312 172.144531 117.566406 172.070312 117.558594 C 171.585938 117.496094 171.21875 117.25 171.25 117.003906 C 171.277344 116.800781 171.578125 116.664062 171.960938 116.664062 C 172.035156 116.664062 172.105469 116.667969 172.183594 116.679688 C 172.667969 116.738281 173.03125 116.988281 173 117.230469 C 172.976562 117.433594 172.671875 117.570312 172.289062 117.570312 " fill-opacity="1" fill-rule="nonzero"/><path fill="#f6c766" d="M 168.976562 118.480469 C 168.914062 118.480469 168.851562 118.476562 168.785156 118.46875 C 168.300781 118.414062 167.929688 118.175781 167.957031 117.933594 C 167.980469 117.722656 168.292969 117.578125 168.691406 117.578125 C 168.753906 117.578125 168.816406 117.582031 168.882812 117.589844 C 169.367188 117.640625 169.742188 117.882812 169.710938 118.128906 C 169.6875 118.335938 169.375 118.480469 168.976562 118.480469 " fill-opacity="1" fill-rule="nonzero"/><path fill="#f6c766" d="M 167.859375 120.578125 C 167.789062 120.578125 167.71875 120.574219 167.640625 120.5625 C 167.160156 120.5 166.789062 120.253906 166.820312 120.011719 C 166.847656 119.808594 167.148438 119.667969 167.535156 119.667969 C 167.605469 119.667969 167.679688 119.675781 167.753906 119.683594 C 168.238281 119.746094 168.605469 119.992188 168.574219 120.238281 C 168.550781 120.441406 168.246094 120.578125 167.859375 120.578125 " fill-opacity="1" fill-rule="nonzero"/><path fill="#f6c766" d="M 175.226562 119.28125 C 175.15625 119.28125 175.082031 119.273438 175.007812 119.265625 C 174.523438 119.203125 174.15625 118.957031 174.1875 118.714844 C 174.214844 118.507812 174.515625 118.371094 174.902344 118.371094 C 174.972656 118.371094 175.042969 118.375 175.121094 118.386719 C 175.605469 118.449219 175.972656 118.695312 175.941406 118.9375 C 175.914062 119.144531 175.613281 119.28125 175.226562 119.28125 " fill-opacity="1" fill-rule="nonzero"/><path fill="#f6c766" d="M 176.058594 122.070312 C 175.988281 122.070312 175.914062 122.066406 175.839844 122.058594 C 175.355469 121.996094 174.988281 121.75 175.019531 121.503906 C 175.046875 121.300781 175.347656 121.164062 175.734375 121.164062 C 175.804688 121.164062 175.875 121.167969 175.953125 121.179688 C 176.4375 121.238281 176.804688 121.488281 176.773438 121.730469 C 176.746094 121.933594 176.445312 122.070312 176.058594 122.070312 " fill-opacity="1" fill-rule="nonzero"/><path fill="#f6c766" d="M 174.011719 124.339844 C 173.941406 124.339844 173.867188 124.335938 173.792969 124.328125 C 173.308594 124.261719 172.941406 124.019531 172.972656 123.773438 C 173 123.570312 173.300781 123.433594 173.6875 123.433594 C 173.757812 123.433594 173.832031 123.4375 173.90625 123.449219 C 174.390625 123.507812 174.757812 123.757812 174.726562 124 C 174.699219 124.203125 174.398438 124.339844 174.011719 124.339844 " fill-opacity="1" fill-rule="nonzero"/><path fill="#f6c766" d="M 169.214844 123.726562 C 169.144531 123.726562 169.070312 123.722656 168.996094 123.714844 C 168.511719 123.648438 168.144531 123.40625 168.175781 123.160156 C 168.203125 122.957031 168.503906 122.820312 168.890625 122.820312 C 168.960938 122.820312 169.035156 122.824219 169.109375 122.835938 C 169.59375 122.894531 169.960938 123.144531 169.929688 123.386719 C 169.902344 123.589844 169.601562 123.726562 169.214844 123.726562 " fill-opacity="1" fill-rule="nonzero"/><path fill="#f6c766" d="M 171.894531 120.644531 C 171.824219 120.644531 171.75 120.640625 171.675781 120.632812 C 171.191406 120.570312 170.824219 120.324219 170.855469 120.082031 C 170.882812 119.875 171.183594 119.738281 171.566406 119.738281 C 171.640625 119.738281 171.714844 119.742188 171.789062 119.753906 C 172.273438 119.816406 172.636719 120.0625 172.605469 120.304688 C 172.582031 120.507812 172.277344 120.644531 171.894531 120.644531 " fill-opacity="1" fill-rule="nonzero"/><path fill="#f9a72b" d="M 180.253906 129.386719 C 178.730469 126.4375 174.453125 127.964844 173.410156 128.390625 L 173.003906 128.019531 L 172.757812 128.148438 L 173.175781 128.492188 C 173.175781 128.492188 173.910156 129.0625 174.738281 130.207031 C 173.363281 130.273438 169.601562 130.785156 171.238281 134.410156 C 172.859375 138 175.535156 134.96875 176.464844 133.730469 C 176.59375 134.15625 176.703125 134.609375 176.789062 135.089844 L 176.710938 135.191406 L 176.792969 135.710938 L 176.882812 135.664062 C 176.882812 135.664062 181.996094 132.757812 180.253906 129.386719 " fill-opacity="1" fill-rule="nonzero"/><path fill="#f9a72b" d="M 176.710938 135.191406 C 176.710938 135.191406 181.824219 132.285156 180.085938 128.914062 C 178.34375 125.546875 173.003906 128.019531 173.003906 128.019531 C 173.003906 128.019531 173.738281 128.585938 174.566406 129.734375 C 173.191406 129.800781 169.429688 130.3125 171.066406 133.9375 C 172.6875 137.527344 175.363281 134.496094 176.296875 133.257812 C 176.472656 133.851562 176.617188 134.496094 176.710938 135.191406 " fill-opacity="1" fill-rule="nonzero"/><path fill="#f9a72b" d="M 175.363281 129.171875 C 175.363281 129.171875 176.011719 130.804688 178.003906 129.386719 L 175.363281 129.171875 " fill-opacity="1" fill-rule="nonzero"/><path fill="#f9a72b" d="M 177.292969 132.902344 C 177.292969 132.902344 176.335938 131.429688 178.648438 130.628906 L 177.292969 132.902344 " fill-opacity="1" fill-rule="nonzero"/><path fill="#f9a72b" d="M 199.039062 112.867188 C 198.617188 116.152344 195.011719 118.402344 190.984375 117.886719 C 186.957031 117.371094 184.035156 114.289062 184.453125 111 C 184.878906 107.714844 188.484375 105.464844 192.507812 105.980469 C 196.535156 106.496094 199.460938 109.578125 199.039062 112.867188 " fill-opacity="1" fill-rule="nonzero"/><path fill="#f9a72b" d="M 199.132812 112.132812 C 198.710938 115.421875 195.105469 117.667969 191.078125 117.152344 C 187.050781 116.636719 184.128906 113.554688 184.550781 110.265625 C 184.96875 106.976562 188.578125 104.730469 192.605469 105.246094 C 196.632812 105.757812 199.554688 108.84375 199.132812 112.132812 " fill-opacity="1" fill-rule="nonzero"/><path fill="#f6c766" d="M 192.628906 107.203125 C 192.542969 107.203125 192.449219 107.199219 192.355469 107.1875 C 191.75 107.109375 191.285156 106.800781 191.324219 106.496094 C 191.359375 106.238281 191.738281 106.066406 192.222656 106.066406 C 192.308594 106.066406 192.402344 106.070312 192.496094 106.085938 C 193.105469 106.164062 193.566406 106.472656 193.527344 106.777344 C 193.492188 107.035156 193.113281 107.203125 192.628906 107.203125 " fill-opacity="1" fill-rule="nonzero"/><path fill="#f6c766" d="M 188.472656 108.347656 C 188.394531 108.347656 188.316406 108.34375 188.234375 108.332031 C 187.625 108.265625 187.15625 107.964844 187.191406 107.660156 C 187.21875 107.394531 187.613281 107.214844 188.117188 107.214844 C 188.195312 107.214844 188.273438 107.21875 188.355469 107.230469 C 188.964844 107.296875 189.429688 107.597656 189.394531 107.902344 C 189.367188 108.167969 188.972656 108.347656 188.472656 108.347656 " fill-opacity="1" fill-rule="nonzero"/><path fill="#f6c766" d="M 187.070312 110.980469 C 186.984375 110.980469 186.890625 110.972656 186.796875 110.960938 C 186.1875 110.882812 185.726562 110.574219 185.765625 110.269531 C 185.800781 110.011719 186.179688 109.839844 186.664062 109.839844 C 186.753906 109.839844 186.84375 109.84375 186.9375 109.859375 C 187.546875 109.9375 188.007812 110.246094 187.96875 110.550781 C 187.933594 110.808594 187.554688 110.980469 187.070312 110.980469 " fill-opacity="1" fill-rule="nonzero"/><path fill="#f6c766" d="M 196.320312 109.347656 C 196.230469 109.347656 196.140625 109.34375 196.042969 109.332031 C 195.4375 109.253906 194.976562 108.945312 195.015625 108.640625 C 195.046875 108.382812 195.429688 108.210938 195.910156 108.210938 C 196 108.210938 196.09375 108.21875 196.183594 108.230469 C 196.792969 108.308594 197.253906 108.617188 197.214844 108.921875 C 197.183594 109.179688 196.804688 109.347656 196.320312 109.347656 " fill-opacity="1" fill-rule="nonzero"/><path fill="#f6c766" d="M 197.363281 112.855469 C 197.277344 112.855469 197.183594 112.851562 197.089844 112.835938 C 196.480469 112.757812 196.019531 112.449219 196.058594 112.144531 C 196.09375 111.886719 196.472656 111.714844 196.957031 111.714844 C 197.042969 111.714844 197.136719 111.722656 197.230469 111.734375 C 197.839844 111.8125 198.300781 112.121094 198.261719 112.425781 C 198.226562 112.683594 197.847656 112.855469 197.363281 112.855469 " fill-opacity="1" fill-rule="nonzero"/><path fill="#f6c766" d="M 194.796875 115.703125 C 194.707031 115.703125 194.613281 115.695312 194.519531 115.6875 C 193.910156 115.609375 193.453125 115.296875 193.492188 114.992188 C 193.523438 114.734375 193.902344 114.566406 194.386719 114.566406 C 194.476562 114.566406 194.566406 114.570312 194.660156 114.582031 C 195.269531 114.660156 195.730469 114.96875 195.691406 115.273438 C 195.65625 115.53125 195.277344 115.703125 194.796875 115.703125 " fill-opacity="1" fill-rule="nonzero"/><path fill="#f6c766" d="M 188.773438 114.933594 C 188.683594 114.933594 188.59375 114.925781 188.496094 114.914062 C 187.890625 114.839844 187.429688 114.527344 187.46875 114.222656 C 187.5 113.964844 187.882812 113.792969 188.363281 113.792969 C 188.453125 113.792969 188.546875 113.800781 188.636719 113.8125 C 189.246094 113.890625 189.707031 114.199219 189.667969 114.503906 C 189.636719 114.761719 189.257812 114.933594 188.773438 114.933594 " fill-opacity="1" fill-rule="nonzero"/><path fill="#f6c766" d="M 192.136719 111.066406 C 192.046875 111.066406 191.953125 111.0625 191.859375 111.046875 C 191.25 110.96875 190.792969 110.660156 190.832031 110.355469 C 190.863281 110.097656 191.242188 109.925781 191.726562 109.925781 C 191.816406 109.925781 191.90625 109.933594 192 109.945312 C 192.609375 110.023438 193.070312 110.332031 193.03125 110.636719 C 193 110.894531 192.621094 111.066406 192.136719 111.066406 " fill-opacity="1" fill-rule="nonzero"/><path fill="#f9a72b" d="M 191.878906 98.394531 C 190.257812 96.796875 187.792969 98.699219 187.203125 99.203125 L 186.859375 99.042969 L 186.726562 99.179688 L 187.074219 99.316406 C 187.074219 99.316406 187.675781 99.53125 188.457031 100.101562 C 187.574219 100.4375 185.230469 101.570312 187.070312 103.585938 C 188.894531 105.582031 189.992188 103.035156 190.332031 102.03125 C 190.507812 102.28125 190.675781 102.554688 190.835938 102.847656 L 190.804688 102.933594 L 190.96875 103.253906 L 191.015625 103.203125 C 191.015625 103.203125 193.730469 100.222656 191.878906 98.394531 " fill-opacity="1" fill-rule="nonzero"/><path fill="#f9a72b" d="M 190.804688 102.933594 C 190.804688 102.933594 193.519531 99.949219 191.667969 98.125 C 189.816406 96.296875 186.859375 99.042969 186.859375 99.042969 C 186.859375 99.042969 187.460938 99.257812 188.242188 99.828125 C 187.363281 100.164062 185.019531 101.296875 186.859375 103.3125 C 188.679688 105.308594 189.777344 102.765625 190.121094 101.761719 C 190.363281 102.109375 190.597656 102.496094 190.804688 102.933594 " fill-opacity="1" fill-rule="nonzero"/><path fill="#f9a72b" d="M 188.644531 99.292969 C 188.644531 99.292969 189.417969 100.222656 190.410156 98.871094 L 188.644531 99.292969 " fill-opacity="1" fill-rule="nonzero"/><path fill="#f9a72b" d="M 190.695312 101.316406 C 190.695312 101.316406 189.757812 100.558594 191.09375 99.546875 L 190.695312 101.316406 " fill-opacity="1" fill-rule="nonzero"/><path fill="#f9a72b" d="M 171.46875 108.492188 C 170.1875 111.554688 174.109375 113.839844 175.113281 114.363281 L 175.085938 114.914062 L 175.34375 115.019531 L 175.335938 114.476562 C 175.335938 114.476562 175.300781 113.546875 175.648438 112.179688 C 176.582031 113.1875 179.394531 115.734375 181.121094 112.148438 C 182.828125 108.597656 178.785156 108.503906 177.234375 108.59375 C 177.480469 108.21875 177.757812 107.84375 178.070312 107.46875 L 178.199219 107.464844 L 178.542969 107.066406 L 178.449219 107.027344 C 178.449219 107.027344 172.929688 104.992188 171.46875 108.492188 " fill-opacity="1" fill-rule="nonzero"/><path fill="#f9a72b" d="M 178.199219 107.464844 C 178.199219 107.464844 172.679688 105.429688 171.214844 108.925781 C 169.753906 112.425781 175.085938 114.914062 175.085938 114.914062 C 175.085938 114.914062 175.046875 113.984375 175.394531 112.613281 C 176.332031 113.621094 179.144531 116.167969 180.871094 112.582031 C 182.578125 109.035156 178.53125 108.941406 176.980469 109.027344 C 177.324219 108.507812 177.726562 107.984375 178.199219 107.464844 " fill-opacity="1" fill-rule="nonzero"/><path fill="#f9a72b" d="M 174.449219 112.367188 C 174.449219 112.367188 175.285156 110.820312 172.914062 110.210938 L 174.449219 112.367188 " fill-opacity="1" fill-rule="nonzero"/><path fill="#f9a72b" d="M 176.066406 108.496094 C 176.066406 108.496094 175.554688 110.175781 173.457031 108.921875 L 176.066406 108.496094 " fill-opacity="1" fill-rule="nonzero"/><path fill="#f9a72b" d="M 194.320312 128.953125 C 194.621094 125.648438 190.195312 124.636719 189.082031 124.4375 L 188.945312 123.90625 L 188.664062 123.878906 L 188.832031 124.398438 C 188.832031 124.398438 189.144531 125.273438 189.226562 126.679688 C 188.03125 126 184.585938 124.410156 184.011719 128.347656 C 183.445312 132.246094 187.335938 131.125 188.789062 130.578125 C 188.664062 131.007812 188.511719 131.449219 188.328125 131.902344 L 188.207031 131.941406 L 187.996094 132.425781 L 188.09375 132.433594 C 188.09375 132.433594 193.972656 132.726562 194.320312 128.953125 " fill-opacity="1" fill-rule="nonzero"/><path fill="#f9a72b" d="M 188.207031 131.941406 C 188.207031 131.941406 194.085938 132.238281 194.429688 128.460938 C 194.777344 124.683594 188.945312 123.90625 188.945312 123.90625 C 188.945312 123.90625 189.257812 124.78125 189.335938 126.191406 C 188.140625 125.511719 184.695312 123.921875 184.125 127.855469 C 183.558594 131.753906 187.445312 130.632812 188.898438 130.089844 C 188.726562 130.683594 188.503906 131.304688 188.207031 131.941406 " fill-opacity="1" fill-rule="nonzero"/><path fill="#f9a72b" d="M 190.3125 126.144531 C 190.3125 126.144531 189.976562 127.871094 192.421875 127.742188 L 190.3125 126.144531 " fill-opacity="1" fill-rule="nonzero"/><path fill="#f9a72b" d="M 189.929688 130.324219 C 189.929688 130.324219 189.914062 128.566406 192.296875 129.136719 L 189.929688 130.324219 " fill-opacity="1" fill-rule="nonzero"/><g clip-path="url(#8b8bea5610)"><path fill="#341f17" d="M 110.035156 248.359375 L 265.707031 248.359375 L 265.707031 241.363281 L 296.636719 241.363281 L 289.742188 224.121094 L 297 205.050781 L 265.707031 205.050781 L 265.707031 198.316406 L 110.035156 198.316406 L 110.035156 205.050781 L 78.34375 205.050781 L 85.601562 224.121094 L 78.703125 241.363281 L 110.035156 241.363281 Z M 273.332031 255.972656 L 102.414062 255.972656 L 102.414062 248.972656 L 67.449219 248.972656 L 77.421875 224.050781 L 67.289062 197.441406 L 102.414062 197.441406 L 102.414062 190.703125 L 273.332031 190.703125 L 273.332031 197.441406 L 308.054688 197.441406 L 297.921875 224.050781 L 307.890625 248.972656 L 273.332031 248.972656 L 273.332031 255.972656 " fill-opacity="1" fill-rule="nonzero"/></g><path fill="#d01f29" d="M 267.738281 201.246094 L 267.738281 245.167969 L 302.265625 245.167969 L 293.832031 224.085938 L 302.527344 201.246094 L 267.738281 201.246094 " fill-opacity="1" fill-rule="nonzero"/><path fill="#5e9f31" d="M 107.605469 201.246094 L 107.605469 245.167969 L 73.078125 245.167969 L 81.511719 224.085938 L 72.816406 201.246094 L 107.605469 201.246094 " fill-opacity="1" fill-rule="nonzero"/><path fill="#fbe7d6" d="M 269.519531 252.164062 L 106.222656 252.164062 L 106.222656 194.507812 L 269.519531 194.507812 L 269.519531 252.164062 " fill-opacity="1" fill-rule="nonzero"/><path fill="#5e9f31" d="M 150.398438 170.976562 L 152.121094 176.265625 L 157.691406 176.265625 L 153.1875 179.535156 L 154.90625 184.824219 L 150.398438 181.554688 L 145.890625 184.824219 L 147.613281 179.535156 L 143.105469 176.265625 L 148.679688 176.265625 L 150.398438 170.976562 " fill-opacity="1" fill-rule="nonzero"/><path fill="#5e9f31" d="M 170.691406 170.976562 L 172.414062 176.265625 L 177.988281 176.265625 L 173.480469 179.535156 L 175.199219 184.824219 L 170.691406 181.554688 L 166.1875 184.824219 L 167.90625 179.535156 L 163.398438 176.265625 L 168.972656 176.265625 L 170.691406 170.976562 " fill-opacity="1" fill-rule="nonzero"/><path fill="#d01f29" d="M 208.960938 170.976562 L 210.683594 176.265625 L 216.253906 176.265625 L 211.746094 179.535156 L 213.46875 184.824219 L 208.960938 181.554688 L 204.453125 184.824219 L 206.175781 179.535156 L 201.667969 176.265625 L 207.242188 176.265625 L 208.960938 170.976562 " fill-opacity="1" fill-rule="nonzero"/><path fill="#d01f29" d="M 228.652344 170.976562 L 230.371094 176.265625 L 235.945312 176.265625 L 231.4375 179.535156 L 233.160156 184.824219 L 228.652344 181.554688 L 224.144531 184.824219 L 225.863281 179.535156 L 221.355469 176.265625 L 226.929688 176.265625 L 228.652344 170.976562 " fill-opacity="1" fill-rule="nonzero"/><g clip-path="url(#ad387cd7c6)"><g clip-path="url(#9f3aa39cc9)"><g clip-path="url(#07a668cb91)"><path fill="#405626" d="M 125.015625 310.5 C 131.878906 305.769531 140.335938 303.808594 148.457031 302.578125 C 157.199219 301.242188 166.015625 300.710938 174.835938 300.40625 C 183.761719 300.117188 192.683594 300.027344 201.609375 299.535156 C 206.042969 299.277344 210.488281 298.890625 214.914062 298.359375 C 219.066406 297.855469 223.265625 297.351562 227.347656 296.324219 C 231.457031 295.296875 235.480469 293.59375 238.316406 290.3125 C 240.792969 287.433594 242.332031 283.324219 241.070312 279.597656 C 240.542969 278.035156 238.09375 278.726562 238.296875 280.328125 C 238.75 283.726562 237.792969 286.769531 235.441406 289.253906 C 232.800781 292.054688 228.960938 293.402344 225.34375 294.316406 C 217.121094 296.351562 208.585938 297.101562 200.144531 297.585938 C 183.003906 298.535156 165.710938 297.902344 148.722656 300.664062 C 140.0625 302.039062 131.394531 304.152344 124.40625 309.714844 C 123.898438 310.109375 124.476562 310.871094 125.015625 310.5 Z M 125.015625 310.5 " fill-opacity="1" fill-rule="nonzero"/></g></g></g><g clip-path="url(#0a9aa71a4a)"><g clip-path="url(#3e4952d7f9)"><g clip-path="url(#e1c33f325d)"><path fill="#405626" d="M 127.609375 304.53125 C 134.710938 300.863281 142.324219 299.238281 150.1875 298.191406 C 150.613281 298.136719 150.667969 297.394531 150.1875 297.402344 C 142.167969 297.222656 134.210938 300.136719 127.394531 304.226562 C 127.253906 304.320312 127.417969 304.628906 127.609375 304.53125 Z M 127.609375 304.53125 " fill-opacity="1" fill-rule="nonzero"/></g></g></g><g clip-path="url(#f9ff5f7b29)"><g clip-path="url(#9f884f63fd)"><g clip-path="url(#7ecb50b47b)"><path fill="#405626" d="M 235.972656 295.257812 C 238.792969 294.496094 241.269531 292.785156 243.003906 290.457031 C 243.898438 289.277344 244.617188 287.964844 245.050781 286.5625 C 245.417969 285.449219 246.105469 283.457031 245.21875 282.476562 C 244.804688 282.019531 244.195312 282.019531 243.796875 282.476562 C 243.039062 283.3125 243.375 284.945312 243.15625 286.039062 C 242.910156 287.292969 242.476562 288.488281 241.882812 289.605469 C 240.539062 292.039062 238.421875 293.957031 235.867188 295.019531 C 235.695312 295.066406 235.800781 295.308594 235.972656 295.257812 Z M 235.972656 295.257812 " fill-opacity="1" fill-rule="nonzero"/></g></g></g><g fill="#d44533" fill-opacity="1"><g transform="translate(120.597331, 234.748153)"><g><path d="M 1.269531 0 L 4.664062 0 C 4.890625 0 5.074219 -0.0742188 5.226562 -0.261719 C 5.375 -0.410156 5.484375 -0.597656 5.484375 -0.820312 C 5.484375 -1.046875 5.449219 -1.230469 5.410156 -1.378906 C 5.375 -1.492188 5.375 -1.605469 5.375 -1.753906 C 5.375 -1.902344 5.410156 -2.164062 5.484375 -2.539062 C 5.5625 -2.910156 5.710938 -3.507812 5.972656 -4.402344 C 6.195312 -5.300781 6.53125 -6.53125 6.980469 -8.136719 C 7.425781 -9.742188 7.988281 -11.867188 8.734375 -14.554688 C 9.925781 -14.105469 10.972656 -13.472656 11.90625 -12.726562 C 12.800781 -11.941406 13.621094 -11.085938 14.292969 -10.1875 C 14.964844 -9.292969 15.5625 -8.359375 16.046875 -7.425781 C 16.496094 -6.457031 16.867188 -5.597656 17.167969 -4.8125 C 17.464844 -4.03125 17.652344 -3.394531 17.800781 -2.875 C 17.914062 -2.351562 17.988281 -2.050781 17.988281 -1.976562 L 17.875 -0.859375 C 17.839844 -0.632812 17.914062 -0.449219 18.101562 -0.261719 C 18.285156 -0.0742188 18.511719 0 18.734375 0 L 22.128906 0 C 22.429688 0 22.617188 -0.148438 22.617188 -0.484375 C 22.617188 -0.597656 22.578125 -0.710938 22.503906 -0.859375 C 22.355469 -1.082031 22.207031 -1.269531 22.128906 -1.34375 C 22.054688 -1.417969 21.980469 -1.53125 21.90625 -1.679688 C 21.832031 -1.828125 21.71875 -2.089844 21.609375 -2.464844 C 21.496094 -2.800781 21.347656 -3.359375 21.125 -4.105469 C 20.898438 -4.851562 20.636719 -5.859375 20.300781 -7.164062 C 19.964844 -8.433594 19.519531 -10.113281 18.996094 -12.167969 C 18.4375 -14.179688 17.765625 -16.683594 17.019531 -19.59375 C 16.234375 -22.503906 15.300781 -25.9375 14.257812 -29.96875 C 14.21875 -30.042969 14.179688 -30.15625 14.179688 -30.230469 C 14.179688 -30.304688 14.179688 -30.378906 14.179688 -30.453125 C 14.179688 -30.675781 14.21875 -30.976562 14.367188 -31.273438 L 14.554688 -31.722656 C 14.628906 -31.910156 14.59375 -32.09375 14.441406 -32.28125 C 14.292969 -32.46875 14.070312 -32.582031 13.808594 -32.582031 L 9.554688 -32.582031 C 9.328125 -32.582031 9.179688 -32.503906 9.03125 -32.394531 C 8.882812 -32.246094 8.808594 -32.09375 8.808594 -31.945312 C 8.808594 -31.832031 8.808594 -31.757812 8.84375 -31.722656 L 9.03125 -31.273438 C 9.144531 -30.976562 9.21875 -30.675781 9.21875 -30.453125 C 9.21875 -30.378906 9.179688 -30.304688 9.179688 -30.230469 C 9.179688 -30.15625 9.144531 -30.042969 9.144531 -29.96875 L 6.15625 -18.882812 C 6.007812 -18.882812 5.859375 -18.921875 5.710938 -18.921875 L 5.261719 -18.921875 C 3.769531 -18.921875 2.386719 -18.660156 1.046875 -18.210938 C -0.296875 -17.765625 -1.492188 -17.09375 -2.5 -16.195312 C -3.546875 -15.300781 -4.367188 -14.257812 -5 -12.988281 C -5.636719 -11.71875 -5.972656 -10.335938 -6.007812 -8.769531 L -6.007812 -8.507812 C -6.007812 -8.472656 -6.046875 -8.398438 -6.046875 -8.324219 C -6.082031 -8.246094 -6.121094 -8.097656 -6.195312 -7.949219 C -6.269531 -7.800781 -6.34375 -7.539062 -6.457031 -7.203125 C -6.53125 -6.980469 -6.53125 -6.792969 -6.382812 -6.605469 C -6.269531 -6.417969 -6.082031 -6.34375 -5.859375 -6.34375 L -2.425781 -6.34375 C -2.277344 -6.34375 -2.128906 -6.382812 -1.976562 -6.53125 C -1.867188 -6.644531 -1.792969 -6.792969 -1.792969 -7.015625 C -1.792969 -7.089844 -1.828125 -7.128906 -1.828125 -7.203125 C -2.050781 -7.6875 -2.164062 -7.988281 -2.203125 -8.136719 C -2.277344 -8.285156 -2.277344 -8.398438 -2.277344 -8.507812 C -2.277344 -9.515625 -2.050781 -10.449219 -1.640625 -11.269531 C -1.269531 -12.089844 -0.710938 -12.761719 -0.0390625 -13.359375 C 0.632812 -13.957031 1.417969 -14.40625 2.3125 -14.703125 C 3.210938 -15.003906 4.140625 -15.1875 5.1875 -15.1875 C 4.476562 -12.613281 3.917969 -10.523438 3.507812 -8.882812 C 3.058594 -7.238281 2.722656 -5.972656 2.464844 -5 C 2.203125 -4.03125 2.015625 -3.320312 1.902344 -2.875 C 1.753906 -2.425781 1.640625 -2.089844 1.566406 -1.902344 C 1.492188 -1.679688 1.378906 -1.53125 1.304688 -1.417969 C 1.195312 -1.304688 1.046875 -1.121094 0.894531 -0.859375 C 0.820312 -0.710938 0.785156 -0.597656 0.785156 -0.484375 C 0.785156 -0.148438 0.933594 0 1.269531 0 Z M 14.367188 -15.5625 C 13.621094 -16.160156 12.875 -16.644531 12.089844 -17.09375 C 11.269531 -17.539062 10.488281 -17.875 9.703125 -18.175781 C 9.925781 -19.070312 10.152344 -19.890625 10.375 -20.636719 C 10.5625 -21.382812 10.75 -22.054688 10.898438 -22.652344 C 11.046875 -23.214844 11.160156 -23.660156 11.269531 -23.996094 L 11.417969 -24.519531 C 11.417969 -24.667969 11.53125 -24.742188 11.71875 -24.742188 C 11.832031 -24.742188 11.90625 -24.667969 11.980469 -24.519531 C 11.980469 -24.480469 12.015625 -24.21875 12.167969 -23.734375 C 12.316406 -23.214844 12.503906 -22.578125 12.726562 -21.757812 C 12.949219 -20.9375 13.175781 -19.964844 13.472656 -18.921875 C 13.769531 -17.839844 14.070312 -16.71875 14.367188 -15.5625 Z M 14.367188 -15.5625 "/></g></g></g><g fill="#d44533" fill-opacity="1"><g transform="translate(143.954996, 234.748153)"><g><path d="M 2.5 0 L 5.933594 0 C 6.082031 0 6.234375 -0.0390625 6.382812 -0.1875 C 6.492188 -0.296875 6.566406 -0.449219 6.566406 -0.671875 C 6.566406 -0.746094 6.53125 -0.785156 6.53125 -0.859375 L 6.121094 -1.976562 C 6.082031 -2.015625 6.082031 -2.089844 6.082031 -2.164062 L 6.082031 -14.515625 C 6.082031 -14.667969 6.15625 -14.777344 6.34375 -14.777344 C 6.417969 -14.777344 6.53125 -14.703125 6.605469 -14.628906 L 12.914062 -1.195312 L 12.800781 -0.859375 C 12.726562 -0.632812 12.726562 -0.449219 12.875 -0.261719 C 12.988281 -0.0742188 13.175781 0 13.398438 0 L 16.792969 0 C 16.980469 0 17.128906 -0.0390625 17.242188 -0.1875 C 17.355469 -0.296875 17.429688 -0.449219 17.429688 -0.632812 C 17.429688 -0.710938 17.390625 -0.785156 17.390625 -0.859375 L 16.980469 -1.976562 C 16.980469 -2.015625 16.941406 -2.050781 16.941406 -2.089844 C 16.941406 -2.089844 16.941406 -2.128906 16.941406 -2.164062 L 16.941406 -30.414062 C 16.941406 -30.414062 16.941406 -30.453125 16.941406 -30.492188 C 16.941406 -30.492188 16.980469 -30.527344 16.980469 -30.601562 L 17.390625 -31.722656 C 17.464844 -31.910156 17.429688 -32.09375 17.316406 -32.28125 C 17.167969 -32.46875 17.019531 -32.582031 16.792969 -32.582031 L 13.398438 -32.582031 C 13.175781 -32.582031 13.023438 -32.503906 12.914062 -32.394531 C 12.800781 -32.246094 12.761719 -32.09375 12.761719 -31.945312 C 12.761719 -31.832031 12.761719 -31.757812 12.800781 -31.722656 L 13.175781 -30.601562 C 13.175781 -30.527344 13.210938 -30.492188 13.210938 -30.414062 L 13.210938 -9.742188 C 13.210938 -9.554688 13.097656 -9.480469 12.949219 -9.480469 C 12.839844 -9.480469 12.761719 -9.515625 12.6875 -9.628906 C 11.867188 -11.34375 11.234375 -12.726562 10.75 -13.769531 C 10.226562 -14.816406 9.851562 -15.675781 9.589844 -16.273438 C 9.292969 -16.867188 9.105469 -17.277344 8.992188 -17.539062 L 8.695312 -18.101562 C 8.621094 -18.210938 8.582031 -18.324219 8.546875 -18.4375 C 8.472656 -18.546875 8.398438 -18.773438 8.246094 -19.070312 C 8.097656 -19.367188 7.875 -19.816406 7.574219 -20.414062 C 7.277344 -21.011719 6.902344 -21.90625 6.382812 -23.0625 L 6.53125 -23.398438 C 6.605469 -23.585938 6.566406 -23.773438 6.417969 -23.960938 C 6.269531 -24.144531 6.121094 -24.257812 5.933594 -24.257812 L 2.5 -24.257812 C 2.277344 -24.257812 2.128906 -24.183594 2.015625 -24.070312 C 1.902344 -23.921875 1.867188 -23.773438 1.867188 -23.625 C 1.867188 -23.511719 1.867188 -23.4375 1.902344 -23.398438 L 2.3125 -22.28125 C 2.3125 -22.207031 2.3125 -22.167969 2.3125 -22.167969 C 2.3125 -22.128906 2.351562 -22.09375 2.351562 -22.09375 L 2.351562 -2.164062 C 2.351562 -2.128906 2.3125 -2.089844 2.3125 -2.089844 C 2.3125 -2.050781 2.3125 -2.015625 2.3125 -1.976562 L 1.902344 -0.859375 C 1.828125 -0.632812 1.828125 -0.449219 1.976562 -0.261719 C 2.089844 -0.0742188 2.277344 0 2.5 0 Z M 2.5 0 "/></g></g></g><g fill="#d44533" fill-opacity="1"><g transform="translate(163.245595, 234.748153)"><g><path d="M 5.859375 0 L 9.292969 0 C 9.480469 0 9.628906 -0.0390625 9.742188 -0.1875 C 9.851562 -0.296875 9.925781 -0.449219 9.925781 -0.632812 C 9.925781 -0.710938 9.890625 -0.785156 9.890625 -0.859375 L 9.480469 -1.976562 C 9.480469 -2.015625 9.441406 -2.050781 9.441406 -2.089844 C 9.441406 -2.089844 9.441406 -2.128906 9.441406 -2.164062 L 9.441406 -27.058594 C 9.441406 -27.207031 9.480469 -27.355469 9.589844 -27.46875 C 9.703125 -27.578125 9.851562 -27.652344 10 -27.691406 C 11.90625 -27.914062 13.621094 -28.550781 15.152344 -29.558594 C 16.644531 -30.566406 17.875 -31.832031 18.808594 -33.328125 L 19.59375 -34.632812 C 19.628906 -34.707031 19.667969 -34.820312 19.667969 -34.96875 C 19.667969 -35.191406 19.554688 -35.34375 19.367188 -35.492188 L 16.832031 -37.058594 C 16.757812 -37.097656 16.644531 -37.132812 16.53125 -37.132812 C 16.160156 -37.132812 15.972656 -36.945312 15.9375 -36.648438 C 15.859375 -36.5 15.824219 -36.273438 15.824219 -36.050781 C 15.785156 -35.789062 15.675781 -35.492188 15.523438 -35.15625 C 15.339844 -34.820312 15.078125 -34.445312 14.703125 -34.035156 C 14.332031 -33.625 13.808594 -33.175781 13.136719 -32.730469 C 12.351562 -32.207031 11.570312 -31.832031 10.785156 -31.609375 C 10 -31.386719 9.21875 -31.3125 8.433594 -31.3125 C 7.054688 -31.3125 5.636719 -31.535156 4.21875 -32.058594 C 2.800781 -32.542969 1.34375 -33.066406 -0.148438 -33.664062 C -1.640625 -34.257812 -3.136719 -34.78125 -4.664062 -35.304688 C -6.234375 -35.789062 -7.800781 -36.050781 -9.40625 -36.050781 C -10.824219 -36.050781 -12.242188 -35.789062 -13.621094 -35.304688 C -14.515625 -34.96875 -15.226562 -34.59375 -15.824219 -34.183594 C -16.421875 -33.773438 -16.90625 -33.363281 -17.277344 -32.917969 C -17.691406 -32.46875 -18.027344 -32.058594 -18.285156 -31.648438 C -18.585938 -31.199219 -18.808594 -30.828125 -19.03125 -30.492188 C -19.109375 -30.339844 -19.144531 -30.230469 -19.144531 -30.15625 C -19.144531 -29.929688 -19.070312 -29.742188 -18.847656 -29.59375 L -16.308594 -28.027344 C -16.234375 -27.953125 -16.121094 -27.914062 -15.972656 -27.914062 C -15.675781 -27.914062 -15.488281 -28.066406 -15.414062 -28.402344 C -15.414062 -28.550781 -15.375 -28.738281 -15.300781 -29.035156 C -15.265625 -29.296875 -15.152344 -29.59375 -14.964844 -29.929688 C -14.777344 -30.230469 -14.480469 -30.566406 -14.070312 -30.902344 C -13.695312 -31.199219 -13.097656 -31.5 -12.351562 -31.796875 C -11.417969 -32.132812 -10.414062 -32.320312 -9.367188 -32.320312 C -8.246094 -32.320312 -7.089844 -32.132812 -5.898438 -31.796875 C -4.703125 -31.421875 -3.507812 -31.011719 -2.277344 -30.527344 C -1.082031 -30.042969 0.148438 -29.558594 1.417969 -29.074219 C 2.648438 -28.585938 3.917969 -28.214844 5.226562 -27.953125 C 5.523438 -27.878906 5.710938 -27.652344 5.710938 -27.316406 L 5.710938 -2.164062 C 5.710938 -2.089844 5.671875 -2.015625 5.671875 -1.976562 L 5.261719 -0.859375 C 5.1875 -0.632812 5.1875 -0.449219 5.335938 -0.261719 C 5.484375 -0.0742188 5.636719 0 5.859375 0 Z M 5.859375 0 "/></g></g></g><g fill="#d44533" fill-opacity="1"><g transform="translate(178.431805, 234.748153)"><g><path d="M 2.5 0 L 5.933594 0 C 6.082031 0 6.234375 -0.0390625 6.382812 -0.1875 C 6.492188 -0.296875 6.566406 -0.449219 6.566406 -0.671875 C 6.566406 -0.746094 6.53125 -0.785156 6.53125 -0.859375 L 6.121094 -1.976562 C 6.082031 -2.015625 6.082031 -2.089844 6.082031 -2.164062 L 6.082031 -11.496094 C 6.082031 -11.644531 6.121094 -11.792969 6.234375 -11.941406 C 6.34375 -12.054688 6.492188 -12.128906 6.71875 -12.128906 L 12.726562 -12.128906 C 12.914062 -12.128906 13.0625 -12.054688 13.175781 -11.941406 C 13.285156 -11.792969 13.359375 -11.644531 13.359375 -11.496094 L 13.359375 -2.164062 C 13.359375 -2.089844 13.324219 -2.015625 13.324219 -1.976562 L 12.949219 -0.859375 C 12.875 -0.632812 12.875 -0.449219 13.023438 -0.261719 C 13.136719 -0.0742188 13.324219 0 13.546875 0 L 16.941406 0 C 17.128906 0 17.277344 -0.0390625 17.390625 -0.1875 C 17.503906 -0.296875 17.578125 -0.449219 17.578125 -0.632812 C 17.578125 -0.710938 17.539062 -0.785156 17.539062 -0.859375 L 17.167969 -1.976562 C 17.128906 -2.015625 17.128906 -2.089844 17.128906 -2.164062 L 17.128906 -22.09375 C 17.128906 -22.167969 17.128906 -22.207031 17.167969 -22.28125 L 17.539062 -23.398438 C 17.613281 -23.585938 17.578125 -23.773438 17.464844 -23.960938 C 17.316406 -24.144531 17.167969 -24.257812 16.941406 -24.257812 L 13.546875 -24.257812 C 13.324219 -24.257812 13.175781 -24.183594 13.0625 -24.070312 C 12.949219 -23.921875 12.914062 -23.773438 12.914062 -23.625 C 12.914062 -23.511719 12.914062 -23.4375 12.949219 -23.398438 L 13.324219 -22.28125 C 13.324219 -22.207031 13.359375 -22.167969 13.359375 -22.09375 L 13.359375 -16.496094 C 13.359375 -16.308594 13.285156 -16.160156 13.175781 -16.046875 C 13.0625 -15.898438 12.914062 -15.859375 12.726562 -15.859375 L 6.71875 -15.859375 C 6.492188 -15.859375 6.34375 -15.898438 6.234375 -16.046875 C 6.121094 -16.160156 6.082031 -16.308594 6.082031 -16.496094 L 6.082031 -22.09375 C 6.082031 -22.167969 6.082031 -22.207031 6.121094 -22.28125 L 6.53125 -23.398438 C 6.605469 -23.585938 6.566406 -23.773438 6.417969 -23.960938 C 6.269531 -24.144531 6.121094 -24.257812 5.933594 -24.257812 L 2.5 -24.257812 C 2.277344 -24.257812 2.128906 -24.183594 2.015625 -24.070312 C 1.902344 -23.921875 1.867188 -23.773438 1.867188 -23.625 C 1.867188 -23.511719 1.867188 -23.4375 1.902344 -23.398438 L 2.3125 -22.28125 C 2.3125 -22.207031 2.3125 -22.167969 2.3125 -22.167969 C 2.3125 -22.128906 2.351562 -22.09375 2.351562 -22.09375 L 2.351562 -2.164062 C 2.351562 -2.128906 2.3125 -2.089844 2.3125 -2.089844 C 2.3125 -2.050781 2.3125 -2.015625 2.3125 -1.976562 L 1.902344 -0.859375 C 1.828125 -0.632812 1.828125 -0.449219 1.976562 -0.261719 C 2.089844 -0.0742188 2.277344 0 2.5 0 Z M 2.5 0 "/></g></g></g><g fill="#d44533" fill-opacity="1"><g transform="translate(197.871657, 234.748153)"><g><path d="M 9.03125 -5.148438 C 10.113281 -5.148438 11.160156 -5.375 12.128906 -5.898438 C 13.097656 -6.382812 13.921875 -7.054688 14.628906 -7.949219 C 15.339844 -8.808594 15.898438 -9.816406 16.308594 -10.972656 C 16.71875 -12.128906 16.941406 -13.359375 16.941406 -14.703125 C 16.941406 -15.972656 16.71875 -17.203125 16.308594 -18.398438 C 15.898438 -19.554688 15.339844 -20.5625 14.628906 -21.421875 C 13.921875 -22.28125 13.097656 -22.953125 12.128906 -23.472656 C 11.160156 -23.996094 10.152344 -24.257812 9.03125 -24.257812 C 7.910156 -24.257812 6.902344 -23.996094 5.933594 -23.511719 C 4.964844 -22.988281 4.105469 -22.316406 3.394531 -21.460938 C 2.6875 -20.5625 2.128906 -19.554688 1.714844 -18.398438 C 1.304688 -17.242188 1.121094 -16.011719 1.121094 -14.703125 C 1.121094 -13.359375 1.304688 -12.128906 1.714844 -10.972656 C 2.128906 -9.816406 2.6875 -8.808594 3.394531 -7.949219 C 4.105469 -7.054688 4.925781 -6.382812 5.898438 -5.898438 C 6.867188 -5.375 7.910156 -5.148438 9.03125 -5.148438 Z M 9.03125 -8.882812 C 8.433594 -8.882812 7.910156 -9.03125 7.425781 -9.328125 C 6.902344 -9.628906 6.457031 -10.078125 6.082031 -10.597656 C 5.710938 -11.121094 5.410156 -11.71875 5.1875 -12.425781 C 4.964844 -13.136719 4.851562 -13.882812 4.851562 -14.703125 C 4.851562 -15.488281 4.964844 -16.234375 5.1875 -16.941406 C 5.410156 -17.652344 5.710938 -18.285156 6.082031 -18.808594 C 6.457031 -19.332031 6.902344 -19.742188 7.425781 -20.039062 C 7.910156 -20.339844 8.433594 -20.527344 9.03125 -20.527344 C 9.554688 -20.527344 10.078125 -20.339844 10.597656 -20.039062 C 11.121094 -19.742188 11.570312 -19.332031 11.941406 -18.808594 C 12.316406 -18.285156 12.652344 -17.652344 12.875 -16.941406 C 13.097656 -16.234375 13.210938 -15.488281 13.210938 -14.703125 C 13.210938 -13.882812 13.097656 -13.136719 12.875 -12.425781 C 12.652344 -11.71875 12.351562 -11.121094 11.980469 -10.597656 C 11.605469 -10.078125 11.160156 -9.628906 10.636719 -9.328125 C 10.113281 -9.03125 9.589844 -8.882812 9.03125 -8.882812 Z M 1.753906 0 L 16.308594 0 C 16.457031 0 16.605469 -0.0390625 16.757812 -0.1875 C 16.867188 -0.296875 16.941406 -0.449219 16.941406 -0.632812 L 16.941406 -2.277344 C 16.941406 -2.425781 16.867188 -2.574219 16.757812 -2.722656 C 16.605469 -2.835938 16.457031 -2.910156 16.308594 -2.910156 L 1.753906 -2.910156 C 1.566406 -2.910156 1.417969 -2.835938 1.304688 -2.722656 C 1.15625 -2.574219 1.121094 -2.425781 1.121094 -2.277344 L 1.121094 -0.632812 C 1.121094 -0.449219 1.15625 -0.296875 1.304688 -0.1875 C 1.417969 -0.0390625 1.566406 0 1.753906 0 Z M 1.753906 0 "/></g></g></g><g fill="#d44533" fill-opacity="1"><g transform="translate(215.930938, 234.748153)"><g><path d="M 2.5 0 L 5.933594 0 C 6.082031 0 6.234375 -0.0390625 6.382812 -0.1875 C 6.492188 -0.296875 6.566406 -0.449219 6.566406 -0.671875 C 6.566406 -0.746094 6.53125 -0.785156 6.53125 -0.859375 L 6.121094 -1.976562 C 6.082031 -2.015625 6.082031 -2.089844 6.082031 -2.164062 L 6.082031 -14.515625 C 6.082031 -14.667969 6.15625 -14.777344 6.34375 -14.777344 C 6.417969 -14.777344 6.53125 -14.703125 6.605469 -14.628906 L 12.914062 -1.195312 L 12.800781 -0.859375 C 12.726562 -0.632812 12.726562 -0.449219 12.875 -0.261719 C 12.988281 -0.0742188 13.175781 0 13.398438 0 L 16.792969 0 C 16.980469 0 17.128906 -0.0390625 17.242188 -0.1875 C 17.355469 -0.296875 17.429688 -0.449219 17.429688 -0.632812 C 17.429688 -0.710938 17.390625 -0.785156 17.390625 -0.859375 L 16.980469 -1.976562 C 16.980469 -2.015625 16.941406 -2.050781 16.941406 -2.089844 C 16.941406 -2.089844 16.941406 -2.128906 16.941406 -2.164062 L 16.941406 -30.414062 C 16.941406 -30.414062 16.941406 -30.453125 16.941406 -30.492188 C 16.941406 -30.492188 16.980469 -30.527344 16.980469 -30.601562 L 17.390625 -31.722656 C 17.464844 -31.910156 17.429688 -32.09375 17.316406 -32.28125 C 17.167969 -32.46875 17.019531 -32.582031 16.792969 -32.582031 L 13.398438 -32.582031 C 13.175781 -32.582031 13.023438 -32.503906 12.914062 -32.394531 C 12.800781 -32.246094 12.761719 -32.09375 12.761719 -31.945312 C 12.761719 -31.832031 12.761719 -31.757812 12.800781 -31.722656 L 13.175781 -30.601562 C 13.175781 -30.527344 13.210938 -30.492188 13.210938 -30.414062 L 13.210938 -9.742188 C 13.210938 -9.554688 13.097656 -9.480469 12.949219 -9.480469 C 12.839844 -9.480469 12.761719 -9.515625 12.6875 -9.628906 C 11.867188 -11.34375 11.234375 -12.726562 10.75 -13.769531 C 10.226562 -14.816406 9.851562 -15.675781 9.589844 -16.273438 C 9.292969 -16.867188 9.105469 -17.277344 8.992188 -17.539062 L 8.695312 -18.101562 C 8.621094 -18.210938 8.582031 -18.324219 8.546875 -18.4375 C 8.472656 -18.546875 8.398438 -18.773438 8.246094 -19.070312 C 8.097656 -19.367188 7.875 -19.816406 7.574219 -20.414062 C 7.277344 -21.011719 6.902344 -21.90625 6.382812 -23.0625 L 6.53125 -23.398438 C 6.605469 -23.585938 6.566406 -23.773438 6.417969 -23.960938 C 6.269531 -24.144531 6.121094 -24.257812 5.933594 -24.257812 L 2.5 -24.257812 C 2.277344 -24.257812 2.128906 -24.183594 2.015625 -24.070312 C 1.902344 -23.921875 1.867188 -23.773438 1.867188 -23.625 C 1.867188 -23.511719 1.867188 -23.4375 1.902344 -23.398438 L 2.3125 -22.28125 C 2.3125 -22.207031 2.3125 -22.167969 2.3125 -22.167969 C 2.3125 -22.128906 2.351562 -22.09375 2.351562 -22.09375 L 2.351562 -2.164062 C 2.351562 -2.128906 2.3125 -2.089844 2.3125 -2.089844 C 2.3125 -2.050781 2.3125 -2.015625 2.3125 -1.976562 L 1.902344 -0.859375 C 1.828125 -0.632812 1.828125 -0.449219 1.976562 -0.261719 C 2.089844 -0.0742188 2.277344 0 2.5 0 Z M 2.5 0 "/></g></g></g><g fill="#d44533" fill-opacity="1"><g transform="translate(235.221537, 234.748153)"><g><path d="M 7.875 0 L 11.308594 0 C 11.496094 0 11.644531 -0.0390625 11.753906 -0.1875 C 11.867188 -0.296875 11.941406 -0.449219 11.941406 -0.671875 C 11.941406 -0.746094 11.90625 -0.820312 11.90625 -0.894531 L 11.496094 -2.089844 C 11.496094 -2.128906 11.457031 -2.164062 11.457031 -2.203125 C 11.457031 -2.203125 11.457031 -2.238281 11.457031 -2.3125 L 11.417969 -11.53125 C 11.417969 -12.128906 11.570312 -12.761719 11.941406 -13.398438 L 16.980469 -22.09375 C 17.054688 -22.167969 17.09375 -22.207031 17.128906 -22.28125 L 18.210938 -23.398438 C 18.363281 -23.550781 18.4375 -23.734375 18.4375 -23.921875 C 18.4375 -24.144531 18.324219 -24.257812 18.101562 -24.257812 L 14.515625 -24.257812 C 14.292969 -24.257812 14.070312 -24.144531 13.847656 -23.960938 C 13.621094 -23.773438 13.472656 -23.585938 13.433594 -23.398438 L 13.175781 -22.28125 C 13.175781 -22.207031 13.136719 -22.128906 13.097656 -22.09375 C 13.097656 -22.054688 12.988281 -21.90625 12.839844 -21.644531 C 12.6875 -21.347656 12.464844 -20.972656 12.203125 -20.527344 C 11.941406 -20.078125 11.644531 -19.519531 11.269531 -18.921875 C 10.898438 -18.324219 10.523438 -17.652344 10.152344 -16.941406 C 10 -16.71875 9.816406 -16.644531 9.589844 -16.644531 C 9.367188 -16.644531 9.179688 -16.71875 9.070312 -16.941406 C 8.210938 -18.363281 7.5 -19.59375 6.980469 -20.5625 C 6.417969 -21.535156 6.121094 -22.019531 6.082031 -22.09375 C 6.007812 -22.128906 6.007812 -22.207031 6.007812 -22.28125 L 5.785156 -23.398438 C 5.710938 -23.585938 5.5625 -23.773438 5.335938 -23.960938 C 5.113281 -24.144531 4.890625 -24.257812 4.664062 -24.257812 L 1.121094 -24.257812 C 0.859375 -24.257812 0.746094 -24.144531 0.746094 -23.921875 C 0.746094 -23.734375 0.820312 -23.550781 1.007812 -23.398438 L 2.050781 -22.28125 C 2.089844 -22.207031 2.128906 -22.167969 2.128906 -22.167969 C 2.128906 -22.128906 2.164062 -22.09375 2.203125 -22.09375 C 2.203125 -22.019531 2.351562 -21.757812 2.648438 -21.273438 C 2.910156 -20.789062 3.285156 -20.152344 3.730469 -19.332031 C 4.179688 -18.511719 4.738281 -17.613281 5.335938 -16.605469 C 5.933594 -15.5625 6.53125 -14.515625 7.203125 -13.398438 C 7.5 -12.800781 7.6875 -12.203125 7.6875 -11.53125 L 7.726562 -2.3125 C 7.726562 -2.203125 7.6875 -2.128906 7.6875 -2.089844 L 7.277344 -0.894531 C 7.203125 -0.671875 7.203125 -0.449219 7.351562 -0.261719 C 7.5 -0.0742188 7.652344 0 7.875 0 Z M 7.875 0 "/></g></g></g><g fill="#405626" fill-opacity="1"><g transform="translate(145.10192, 285.387948)"><g><path d="M 6.265625 -21.71875 C 7.984375 -21.71875 9.257812 -21.257812 10.09375 -20.34375 C 10.9375 -19.4375 11.359375 -18.109375 11.359375 -16.359375 L 11.359375 -13.53125 C 11.359375 -11.769531 10.9375 -10.429688 10.09375 -9.515625 C 9.257812 -8.609375 7.984375 -8.15625 6.265625 -8.15625 L 4.65625 -8.15625 L 4.65625 0 L 1.234375 0 L 1.234375 -21.71875 Z M 4.65625 -18.625 L 4.65625 -11.265625 L 6.265625 -11.265625 C 6.804688 -11.265625 7.21875 -11.410156 7.5 -11.703125 C 7.789062 -11.992188 7.9375 -12.53125 7.9375 -13.3125 L 7.9375 -16.578125 C 7.9375 -17.359375 7.789062 -17.894531 7.5 -18.1875 C 7.21875 -18.476562 6.804688 -18.625 6.265625 -18.625 Z M 4.65625 -18.625 "/></g></g></g><g fill="#405626" fill-opacity="1"><g transform="translate(156.796203, 285.387948)"><g><path d="M 1.234375 -21.71875 L 4.65625 -21.71875 L 4.65625 0 L 1.234375 0 Z M 1.234375 -21.71875 "/></g></g></g><g fill="#405626" fill-opacity="1"><g transform="translate(162.689868, 285.387948)"><g><path d="M 10.703125 -21.71875 L 10.703125 -18.6875 L 4.21875 -3.109375 L 10.703125 -3.109375 L 10.703125 0 L 0.71875 0 L 0.71875 -3.046875 L 7.203125 -18.625 L 1.03125 -18.625 L 1.03125 -21.71875 Z M 10.703125 -21.71875 "/></g></g></g><g fill="#405626" fill-opacity="1"><g transform="translate(174.167016, 285.387948)"><g><path d="M 10.703125 -21.71875 L 10.703125 -18.6875 L 4.21875 -3.109375 L 10.703125 -3.109375 L 10.703125 0 L 0.71875 0 L 0.71875 -3.046875 L 7.203125 -18.625 L 1.03125 -18.625 L 1.03125 -21.71875 Z M 10.703125 -21.71875 "/></g></g></g><g fill="#405626" fill-opacity="1"><g transform="translate(185.644164, 285.387948)"><g><path d="M 12.28125 0 L 8.84375 0 L 8.25 -3.9375 L 4.0625 -3.9375 L 3.46875 0 L 0.34375 0 L 3.8125 -21.71875 L 8.8125 -21.71875 Z M 4.5 -6.890625 L 7.78125 -6.890625 L 6.140625 -17.875 Z M 4.5 -6.890625 "/></g></g></g><g fill="#405626" fill-opacity="1"><g transform="translate(198.269021, 285.387948)"><g><path d="M 8.375 0 C 8.332031 -0.144531 8.289062 -0.28125 8.25 -0.40625 C 8.207031 -0.53125 8.171875 -0.679688 8.140625 -0.859375 C 8.109375 -1.046875 8.085938 -1.285156 8.078125 -1.578125 C 8.066406 -1.867188 8.0625 -2.234375 8.0625 -2.671875 L 8.0625 -6.078125 C 8.0625 -7.097656 7.882812 -7.8125 7.53125 -8.21875 C 7.1875 -8.632812 6.617188 -8.84375 5.828125 -8.84375 L 4.65625 -8.84375 L 4.65625 0 L 1.234375 0 L 1.234375 -21.71875 L 6.390625 -21.71875 C 8.171875 -21.71875 9.457031 -21.300781 10.25 -20.46875 C 11.050781 -19.644531 11.453125 -18.394531 11.453125 -16.71875 L 11.453125 -15.015625 C 11.453125 -12.785156 10.707031 -11.316406 9.21875 -10.609375 C 10.082031 -10.253906 10.675781 -9.679688 11 -8.890625 C 11.320312 -8.097656 11.484375 -7.128906 11.484375 -5.984375 L 11.484375 -2.640625 C 11.484375 -2.097656 11.503906 -1.625 11.546875 -1.21875 C 11.585938 -0.820312 11.691406 -0.414062 11.859375 0 Z M 4.65625 -18.625 L 4.65625 -11.953125 L 5.984375 -11.953125 C 6.628906 -11.953125 7.128906 -12.113281 7.484375 -12.4375 C 7.847656 -12.769531 8.03125 -13.375 8.03125 -14.25 L 8.03125 -16.390625 C 8.03125 -17.171875 7.890625 -17.738281 7.609375 -18.09375 C 7.335938 -18.445312 6.898438 -18.625 6.296875 -18.625 Z M 4.65625 -18.625 "/></g></g></g><g fill="#405626" fill-opacity="1"><g transform="translate(210.738787, 285.387948)"><g><path d="M 1.234375 -21.71875 L 4.65625 -21.71875 L 4.65625 0 L 1.234375 0 Z M 1.234375 -21.71875 "/></g></g></g><g fill="#405626" fill-opacity="1"><g transform="translate(216.632452, 285.387948)"><g><path d="M 12.28125 0 L 8.84375 0 L 8.25 -3.9375 L 4.0625 -3.9375 L 3.46875 0 L 0.34375 0 L 3.8125 -21.71875 L 8.8125 -21.71875 Z M 4.5 -6.890625 L 7.78125 -6.890625 L 6.140625 -17.875 Z M 4.5 -6.890625 "/></g></g></g></svg>